HIERARCHY
ROOT Bip001_Pelvis
{
  OFFSET 7.937 94.8971 -8.5489
  CHANNELS 6 Xposition Yposition Zposition Zrotation Xrotation Yrotation
  JOINT Bip001_Spine
  {
    OFFSET 1.44608e-005 10.4157 -0.0118244
    CHANNELS 3 Zrotation Xrotation Yrotation
    JOINT Bip001_L_Thigh
    {
      OFFSET 11.2582 -10.4157 0.0118432
      CHANNELS 3 Zrotation Xrotation Yrotation
      JOINT Bip001_L_Calf
      {
        OFFSET -0.720717 -44.8687 0.366937
        CHANNELS 3 Zrotation Xrotation Yrotation
        JOINT Bip001_L_Foot
        {
          OFFSET -0.664439 -41.3745 -3.62995
          CHANNELS 3 Zrotation Xrotation Yrotation
          JOINT Bip001_L_Toe0
          {
            OFFSET 0.0541047 -10.4146 13.4033
            CHANNELS 3 Zrotation Xrotation Yrotation
            End Site
            {
              OFFSET -1.04503e-005 0 7.70137
            }
          }
        }
      }
    }
    JOINT Bip001_R_Thigh
    {
      OFFSET -11.2582 -10.4156 0.0118122
      CHANNELS 3 Zrotation Xrotation Yrotation
      JOINT Bip001_R_Calf
      {
        OFFSET 0.72059 -44.8687 0.36676
        CHANNELS 3 Zrotation Xrotation Yrotation
        JOINT Bip001_R_Foot
        {
          OFFSET 0.664321 -41.3745 -3.62979
          CHANNELS 3 Zrotation Xrotation Yrotation
          JOINT Bip001_R_Toe0
          {
            OFFSET -0.05417 -10.4146 13.4033
            CHANNELS 3 Zrotation Xrotation Yrotation
            End Site
            {
              OFFSET -1.04873e-005 0 7.70137
            }
          }
        }
      }
    }
    JOINT Bip001_Spine1
    {
      OFFSET 1.90638e-005 14.8539 1.10727
      CHANNELS 3 Zrotation Xrotation Yrotation
      JOINT Bip001_Spine2
      {
        OFFSET 2.28934e-005 14.7848 -1.7233
        CHANNELS 3 Zrotation Xrotation Yrotation
        JOINT Bip001_Neck
        {
          OFFSET 2.24514e-005 15.6905 -0.498826
          CHANNELS 3 Zrotation Xrotation Yrotation
          JOINT Bip001_L_Clavicle
          {
            OFFSET 6.17691 -0.000591152 0.00852867
            CHANNELS 3 Zrotation Xrotation Yrotation
            JOINT Bip001_L_UpperArm
            {
              OFFSET 11.773 -0.0611878 0.00197697
              CHANNELS 3 Zrotation Xrotation Yrotation
              JOINT Bip001_L_Forearm
              {
                OFFSET 26.4515 0.0817568 -2.19579
                CHANNELS 3 Zrotation Xrotation Yrotation
                JOINT Bip001_L_Hand
                {
                  OFFSET 32.8677 0.156744 1.67112
                  CHANNELS 3 Zrotation Xrotation Yrotation
                  JOINT Bip001_L_Finger0
                  {
                    OFFSET 6.16268 -2.25226 6.01674
                    CHANNELS 3 Zrotation Xrotation Yrotation
                    End Site
                    {
                      OFFSET 4.30499 -1.46662 0.618148
                    }
                  }
                  JOINT Bip001_L_Finger1
                  {
                    OFFSET 11.2957 -0.718374 -0.201963
                    CHANNELS 3 Zrotation Xrotation Yrotation
                    End Site
                    {
                      OFFSET 6.31952 -0.405163 -0.0802303
                    }
                  }
                }
              }
            }
          }
          JOINT Bip001_R_Clavicle
          {
            OFFSET -6.17691 -0.000574027 0.00851165
            CHANNELS 3 Zrotation Xrotation Yrotation
            JOINT Bip001_R_UpperArm
            {
              OFFSET -11.773 -0.0611516 0.00194365
              CHANNELS 3 Zrotation Xrotation Yrotation
              JOINT Bip001_R_Forearm
              {
                OFFSET -26.4514 0.0822334 -2.19736
                CHANNELS 3 Zrotation Xrotation Yrotation
                JOINT Bip001_R_Hand
                {
                  OFFSET -32.8677 0.156817 1.67144
                  CHANNELS 3 Zrotation Xrotation Yrotation
                  JOINT Bip001_R_Finger0
                  {
                    OFFSET -6.1627 -2.25224 6.0167
                    CHANNELS 3 Zrotation Xrotation Yrotation
                    End Site
                    {
                      OFFSET -4.30499 -1.46662 0.618134
                    }
                  }
                  JOINT Bip001_R_Finger1
                  {
                    OFFSET -11.2958 -0.718344 -0.201994
                    CHANNELS 3 Zrotation Xrotation Yrotation
                    End Site
                    {
                      OFFSET -6.31952 -0.405146 -0.0802475
                    }
                  }
                }
              }
            }
          }
          JOINT Bip001_Head
          {
            OFFSET 1.11782e-005 11.4912 2.09908
            CHANNELS 3 Zrotation Xrotation Yrotation
            End Site
            {
              OFFSET 2.95144e-005 21.2823 -2.83069e-005
            }
          }
        }
      }
    }
  }
}
MOTION
Frames:	12
Frame Time:	0.04
10.7644 93.8492 -9.33912 0.285759 -2.62713 -11.3669 0.261914 0.901715 -0.273505 4.68684 -8.74724 12.3552 -2.84642 23.8346 5.86441 -1.97602 -12.3351 1.87384 0.936702 -9.6121 1.23246 -8.49315 -12.9666 4.58905 -3.26732 23.6079 9.14286 2.31739 -10.2837 -6.38299 0.499432 -11.5892 -0.601789 0.605018 1.80528 -0.543284 0.605018 1.80524 -0.543283 -1.19336 -0.275754 2.21762 -24.3104 7.46992 -17.4652 -61.807 44.8769 18.9392 17.5073 4.62475 -30.5199 -6.51112 -0.413097 -4.15474 -1.31038e-032 -7.95139e-016 -9.44227e-016 1.59028e-015 -1.19271e-015 -2.88238e-015 32.2428 3.96936 7.31145 49.2122 28.4592 -6.8648 -2.7335 -25.3959 40.2381 9.62035 -0.202037 -8.61286 8.82781e-032 1.59028e-015 -3.18055e-015 -3.97569e-016 2.38542e-015 -3.18055e-015 -3.72898 -4.61064 2.52859 
11.0213 92.945 -8.84916 0.460871 -2.65297 -15.1133 0.348786 0.891214 -0.580488 5.17768 -9.38501 13.4276 -4.43004 27.455 6.34568 -1.36757 -15.2933 4.28506 1.06784 -9.42535 1.87118 -7.96308 -15.865 6.17406 -4.6742 27.8504 11.2078 2.43371 -12.4034 -5.02697 0.724379 -11.6152 -0.766144 0.829042 1.77844 -1.15127 0.828797 1.77856 -1.15129 -1.85867 0.368987 3.46779 -22.9977 7.21967 -18.8589 -63.5292 45.0147 20.6168 16.8477 4.02528 -30.5053 -5.71866 -0.339658 -3.9559 1.59028e-015 -5.96354e-016 7.45442e-016 1.59028e-015 -5.96354e-016 3.47873e-016 31.7118 2.1183 5.1734 48.8463 22.2715 -9.4106 -1.55382 -24.5188 41.6451 11.6339 -0.307516 -8.99966 -0 0 9.54166e-015 7.95139e-016 0 9.54166e-015 -3.09565 -5.19998 3.43386 
11.3192 91.8565 -8.2031 0.582908 -3.1434 -18.8344 0.419062 0.970852 -0.925401 5.76884 -9.58757 14.1668 -6.86228 31.168 9.13586 -1.02218 -18.3547 5.30413 0.733352 -9.36887 2.23301 -7.6437 -18.5242 8.99396 -4.87911 32.5026 12.3763 2.09897 -14.7447 -4.18584 0.895929 -11.6486 -0.903223 0.943911 1.93429 -1.83835 0.943996 1.9343 -1.83835 -1.632 0.309615 4.42096 -22.5997 7.52367 -19.7226 -65.3359 44.6015 23.0068 17.5554 4.90834 -31.0085 -5.40936 -0.339471 -4.07404 7.95139e-016 1.59028e-015 -1.39149e-015 4.41391e-032 1.59028e-015 -1.59028e-015 30.3595 0.861866 2.0962 47.1474 19.135 -13.5084 -0.746286 -25.5071 44.8594 10.8464 -0.179723 -9.97834 -2.38542e-015 6.36111e-015 -3.18055e-015 0 3.18056e-015 -0 -3.51326 -5.10193 4.52521 
11.5302 90.3815 -7.41966 0.0461171 -3.93725 -22.0684 0.686602 1.19642 -1.38722 6.39793 -10.2695 14.4164 -9.24776 36.4353 9.25824 0.932012 -22.2509 9.2528 -0.400276 -9.44489 3.20146 -7.00644 -20.904 10.3554 -5.92339 37.6495 13.6467 2.08002 -17.4758 -2.10528 0.968248 -11.7297 -0.806882 1.24557 2.37807 -2.76484 1.24557 2.37807 -2.76484 -2.33497 0.213072 5.62316 -21.6223 7.81422 -20.3256 -66.367 44.5636 24.9111 18.8173 6.06683 -31.6035 -5.69497 -0.38255 -3.98211 -1.59028e-015 -3.18055e-015 5.96354e-016 -2.20695e-032 -1.59028e-015 -7.95139e-016 30.3634 -0.0401366 0.101151 41.8127 10.5304 -18.7714 -2.51166 -21.6426 50.2246 11.408 -0.274812 -12.3023 1.59028e-015 -3.18055e-015 -0 1.59028e-015 -3.18056e-015 1.59028e-015 -3.17488 -5.46183 5.43458 
11.7241 88.5981 -6.41008 -0.345212 -5.12295 -24.7326 0.815097 1.50884 -1.83503 7.16895 -10.5348 9.08066 -17.9267 40.0033 16.232 4.59067 -25.9667 14.2948 -1.59684 -9.52891 4.20142 -6.69866 -23.1267 10.8697 -7.64523 43.4458 16.0485 1.74885 -20.7483 -0.469381 1.23605 -11.8988 -0.65689 1.30059 2.99758 -3.64242 1.30265 2.99758 -3.64243 -2.21203 -0.146309 6.35368 -20.8078 8.09734 -20.6013 -67.2569 44.8975 26.1122 18.3786 4.61362 -32.3096 -5.60904 -0.367497 -3.48557 -7.95139e-016 3.18055e-015 3.97569e-016 -5.51738e-032 3.18056e-015 9.93923e-016 29.3049 -0.388158 -1.70092 33.3363 0.325423 -22.3652 -7.89787 -14.7395 53.5313 11.6203 0.980995 -14.7274 -2.99691e-015 -3.18055e-015 -4.03781e-016 -5.48677e-015 0 -2.13228e-015 -3.35926 -5.35344 6.23142 
11.7671 86.5412 -5.43501 -0.74569 -6.52461 -26.5717 0.8137 1.81404 -2.13187 7.55934 -10.7459 13.1113 -18.2145 46.2241 14.9717 5.79898 -29.9244 15.1789 -2.43029 -9.6934 4.546 -6.47877 -24.9948 11.3522 -9.52495 49.5173 19.2902 0.676796 -24.4226 -0.195093 1.62203 -12.0053 -0.773731 1.22551 3.60661 -4.20279 1.22551 3.60661 -4.20281 -1.3482 0.000285985 6.47941 -21.0983 8.14114 -21.4464 -67.1875 45.1098 27.0459 18.2509 3.92055 -32.855 -5.15755 -0.39391 -3.33796 -1.59028e-015 -6.36111e-015 -7.95139e-016 -0 -3.18056e-015 -0 25.8436 -1.05745 -3.96552 25.9035 -10.8679 -24.7672 -10.1855 -12.1123 59.1948 10.3525 2.77887 -19.1075 -2.38542e-015 -1.27222e-014 -1.59028e-015 -6.36111e-015 -9.54167e-015 1.59028e-015 -4.18823 -5.21819 6.76368 
11.7196 84.7095 -4.50587 -1.24502 -8.39077 -27.4324 0.652005 2.21946 -2.42294 8.52338 -9.85183 15.2942 -21.1184 50.3691 16.8324 7.15531 -33.1021 15.0345 -2.98043 -9.88769 4.43927 -6.18808 -25.6164 12.9816 -10.4825 54.72 20.6701 -0.55672 -27.7923 -0.690448 2.23291 -12.1416 -0.919948 0.9462 4.4205 -4.74431 0.9462 4.42051 -4.74432 0.133623 -0.277717 6.33928 -21.4528 8.30443 -21.6445 -66.8357 46.5714 27.1322 17.7688 3.32289 -32.7187 -3.71937 -0.282481 -3.22348 -1.59028e-015 0 -7.95139e-016 7.95139e-016 0 -3.97569e-016 22.9951 -1.27259 -6.59791 14.6224 -25.2543 -27.4745 -11.1404 -7.05173 67.8601 9.30968 2.94064 -22.2511 -7.95139e-015 -9.54166e-015 -0 -9.54166e-015 -3.18056e-015 3.18055e-015 -5.75118 -4.57376 7.36426 
11.5139 82.8393 -3.78204 -1.86024 -9.28226 -26.9863 0.617873 2.43661 -2.83807 9.54043 -10.3006 18.4326 -20.5858 55.8853 13.9552 9.41009 -36 16.6775 -3.97269 -10.112 4.58052 -5.32869 -26.2039 14.7302 -10.9194 59.5443 21.1513 -2.05582 -30.9509 -2.21736 3.07183 -12.311 -1.01054 0.865141 4.85364 -5.53155 0.865142 4.85398 -5.53156 0.887774 -0.0336485 6.37346 -21.4024 7.83947 -21.4537 -66.9968 48.5897 27.475 18.6593 2.48321 -32.2782 -2.96141 -0.361684 -2.76412 3.18055e-015 -9.54166e-015 -0 1.59028e-015 -6.36111e-015 -7.95139e-016 20.1731 -1.77941 -8.44137 3.01678 -38.062 -30.9156 -12.9401 -2.05203 76.1845 6.58581 3.02344 -20.9514 -3.18055e-015 3.18055e-015 3.18055e-015 -1.59028e-015 3.18056e-015 3.18055e-015 -6.29105 -5.56201 7.68695 
11.3817 81.5694 -3.47359 -1.8118 -9.33682 -25.401 0.52989 2.42622 -3.07422 10.3895 -11.4195 18.6885 -21.9108 59.0671 14.0772 10.504 -37.7257 17.0558 -4.15134 -10.1512 4.65827 -5.31899 -26.8493 15.1207 -10.2436 62.7261 20.2168 -2.93226 -33.0681 -3.13843 3.54285 -12.3801 -1.15781 0.753632 4.83383 -5.99863 0.753632 4.83389 -5.99864 1.98625 -0.653965 5.8142 -22.2601 8.23535 -20.6861 -64.3336 47.2793 25.8924 20.7142 3.83315 -33.0875 -3.22078 -0.178391 -2.87753 1.59028e-015 -6.36111e-015 1.59028e-015 1.59028e-015 -6.36111e-015 1.59028e-015 16.4317 -1.04833 -9.73449 -9.72365 -50.4297 -36.9564 -14.3857 2.78783 83.4915 4.72441 1.87899 -17.8208 1.59028e-015 6.36111e-015 -3.18055e-015 3.53113e-031 6.36111e-015 -3.18055e-015 -6.88413 -5.98251 7.52077 
11.2095 80.9249 -3.26503 -1.6951 -9.50219 -23.1605 0.346512 2.44895 -3.02541 10.5265 -12.4518 18.3615 -20.5895 61.2297 12.0484 11.1501 -38.4725 17.3227 -4.4339 -10.207 4.68531 -5.57756 -26.5288 14.5288 -9.44863 64.3852 19.1899 -3.89095 -34.4168 -4.56619 4.10795 -12.4481 -1.2742 0.437352 4.88748 -5.89509 0.437355 4.88761 -5.89509 3.38483 -1.61843 4.80145 -22.8429 8.63606 -19.4709 -60.8276 45.0924 22.1942 21.4395 4.68924 -33.4009 -2.46013 0.21504 -3.29441 -4.77083e-015 0 7.95139e-016 -4.77083e-015 0 7.95139e-016 12.8989 0.24455 -10.0323 -20.2179 -57.9884 -43.0925 -13.3235 3.65729 88.2726 1.22502 2.74148 -15.6368 -4.77083e-015 -3.18055e-015 -3.18055e-015 -4.77083e-015 -3.18056e-015 -0 -7.36553 -5.80402 6.98614 
10.9535 81.0541 -3.41558 -1.55011 -8.97501 -20.3258 0.228175 2.37616 -2.76999 10.935 -13.7393 17.202 -19.5402 61.6041 9.48216 11.8692 -37.855 17.8046 -4.35792 -10.2126 4.55979 -5.47014 -25.8296 13.7768 -8.04566 64.1803 17.5784 -4.77629 -34.5502 -6.78798 4.53385 -12.4598 -1.45088 0.294444 4.74576 -5.4047 0.294357 4.74577 -5.40472 4.41418 -2.25499 3.6422 -23.4237 8.95307 -19.1576 -57.1468 41.1794 17.8622 20.8101 4.329 -34.2286 -1.29556 0.26901 -2.80194 -6.36111e-015 0 -0 -3.18055e-015 0 7.95139e-016 10.3364 1.08115 -10.0774 -30.1379 -66.0269 -48.4672 -13.128 4.08316 91.6425 1.04169 2.37094 -12.4032 3.97569e-015 0 -1.59028e-015 7.15625e-015 3.18056e-015 -4.77083e-015 -7.6771 -5.79331 6.1621 
10.7157 82.0309 -3.74472 -1.0447 -8.11758 -16.757 0.0694451 2.14474 -2.61077 10.8235 -14.8141 15.7874 -17.1126 60.0172 6.53232 11.0814 -36.0974 16.5455 -3.86494 -10.1799 4.2053 -5.77331 -24.5342 12.5893 -6.13044 62.0856 14.485 -4.74901 -33.6496 -8.06697 4.84714 -12.4505 -1.52621 0.128621 4.28667 -5.12304 0.128622 4.28668 -5.12303 5.03425 -2.5182 2.50346 -24.1586 8.88056 -18.4777 -54.7562 36.1558 14.5979 19.4638 3.48595 -36.1868 0.158115 0.283306 -1.88356 8.82781e-032 3.18055e-015 -1.59028e-015 4.41391e-032 3.18056e-015 -7.95139e-016 8.09357 1.59295 -9.38343 -33.3013 -73.8921 -48.1865 -9.37461 4.73682 94.6201 -2.34962 4.61747 -10.5148 2.38542e-015 0 4.77083e-015 3.97569e-015 -3.18056e-015 1.59028e-015 -7.86744 -5.27536 5.26678 
